<?xml version="1.0" encoding="UTF-8"?>
<!DOCTYPE svg PUBLIC "-//W3C//DTD SVG 1.1//EN" "http://www.w3.org/Graphics/SVG/1.1/DTD/svg11.dtd">
<!-- Creator: CorelDRAW X8 -->
<svg xmlns="http://www.w3.org/2000/svg" xml:space="preserve" width="0.393933in" height="0.36111in" version="1.1" style="shape-rendering:geometricPrecision; text-rendering:geometricPrecision; image-rendering:optimizeQuality; fill-rule:evenodd; clip-rule:evenodd"
viewBox="0 0 41 38"
 xmlns:xlink="http://www.w3.org/1999/xlink">
 <defs>
  <style type="text/css">
   <![CDATA[
    .fil0 {fill:white;fill-rule:nonzero}
   ]]>
  </style>
 </defs>
 <g id="Layer_x0020_1">
  <metadata id="CorelCorpID_0Corel-Layer"/>
  <path class="fil0" d="M24 1c0,-1 0,-1 0,-1l-5 0c0,0 0,0 0,1l-1 1c-1,-1 -2,-2 -7,-2 -3,0 -11,1 -11,13 0,13 11,13 12,13 5,0 11,0 16,0 1,0 1,0 1,-1l0 -3c0,-1 0,-1 -1,-1l-3 0c0,-1 1,-3 2,-3 2,0 5,1 5,6 0,3 -1,7 -5,7 -3,0 -4,-2 -4,-2 0,-1 0,-1 0,-1l-6 0c0,0 0,0 0,1l0 7c0,1 0,2 0,2l5 0c0,0 1,-1 1,-1l0 -2c1,2 2,3 7,3 3,0 11,-1 11,-14 0,-12 -10,-12 -11,-12 -6,0 -12,0 -17,0 0,0 -1,0 -1,0l0 4c0,0 1,1 1,1l3 0c0,1 -1,3 -2,3 -2,0 -5,-1 -5,-7 0,-2 1,-7 5,-7 3,0 4,3 4,3 0,0 0,1 1,1l5 0c0,0 0,-1 0,-1l0 -8z"/>
 </g>
</svg>
