<?xml version="1.0" encoding="UTF-8"?>
<!DOCTYPE svg PUBLIC "-//W3C//DTD SVG 1.1//EN" "http://www.w3.org/Graphics/SVG/1.1/DTD/svg11.dtd">
<!-- Creator: CorelDRAW X8 -->
<svg xmlns="http://www.w3.org/2000/svg" xml:space="preserve" width="14.4347in" height="5.85876in" version="1.1" style="shape-rendering:geometricPrecision; text-rendering:geometricPrecision; image-rendering:optimizeQuality; fill-rule:evenodd; clip-rule:evenodd"
viewBox="0 0 20479 8312"
 xmlns:xlink="http://www.w3.org/1999/xlink">
 <defs>
  <style type="text/css">
   <![CDATA[
    .fil0 {fill:white}
   ]]>
  </style>
 </defs>
 <g id="Layer_x0020_1">
  <metadata id="CorelCorpID_0Corel-Layer"/>
  <path class="fil0" d="M7997 1858l326 395c26,67 -73,147 -136,212 -68,68 -8,60 -130,158 -4,3 -9,8 -13,10 -64,52 -214,-3 -325,-33 -31,-9 -73,-31 -91,-41 -74,-541 -137,-533 17,-571 90,-22 256,-123 352,-130zm6544 4723c165,16 534,32 691,-61 162,-96 238,-109 293,-272 12,-36 54,-125 63,-159 52,-204 -8,-639 -168,-859 -248,-340 -492,-421 -944,-424 -189,-2 -199,-36 -141,353l129 942c25,156 11,371 77,480zm-3852 -4132c-20,116 11,907 39,993 233,25 494,15 708,-44 168,-46 310,-263 276,-483 -82,-529 -583,-501 -1023,-466zm-49 -610c1100,156 794,-607 740,-661l-181 -125 -272 -43c-104,-1 -210,-7 -313,2 -18,228 12,422 21,603 3,74 0,147 5,224zm-2849 -868c-163,58 -287,94 -419,203l-22 20c-249,215 -301,290 -413,641 -73,228 -65,769 66,998 39,67 72,108 112,175 56,94 206,241 291,291 178,106 372,174 592,138l310 -107c71,-39 136,-57 192,-104l274 -299c200,-293 298,-763 154,-1173 -9,-23 -12,-43 -20,-67 -57,-182 -155,-308 -269,-448 -187,-229 -569,-367 -848,-268zm4478 6028c35,42 50,67 87,120 51,72 60,36 73,108 -57,40 -481,33 -553,0l-53 -206c-11,-78 -8,-163 -20,-234 -21,-131 -51,-320 -45,-463 94,19 47,47 183,219 42,53 50,78 85,122l243 334zm4857 -480c119,132 163,121 236,178 290,227 653,-132 598,-353 -31,-125 -267,-282 -382,-317l-895 -386c-202,-144 -258,-443 -235,-726 28,-336 289,-434 335,-475 100,-89 150,-79 289,-123 438,-136 893,24 1225,307 223,190 191,208 101,276l-101 58c-31,18 -27,20 -48,32l-229 113c-58,20 45,-3 -46,8 -47,-81 -99,-159 -189,-201 -100,-47 -171,-95 -296,-103 -253,-16 -448,244 -405,356 25,31 49,60 85,95l337 182c235,66 281,111 509,191 97,34 368,216 425,273 137,134 214,294 214,497 0,150 -63,349 -159,450l-92 96c-219,238 -818,370 -1266,219l-399 -221c-37,-29 -84,-59 -116,-87 -4,-4 -173,-187 -168,-230 5,-51 312,-284 457,-313l215 204zm-8278 -2259c234,-23 557,-4 800,-1 140,2 236,14 371,14 79,0 317,-27 366,29 37,42 23,398 15,438l-732 3c-36,0 -91,-3 -125,-1l-71 17c-3,-5 -9,6 -13,9 -41,43 -16,475 -12,535 212,87 674,-24 922,51l3 491c-256,13 -708,-40 -925,5 -7,105 -3,218 -3,324 -1,205 -29,292 79,302l998 2c10,227 58,77 34,509l-1724 -43 17 -2684zm-2922 1316c0,-232 90,-431 189,-600 81,-140 89,-175 200,-298 12,-12 25,-23 32,-30 266,-256 360,-268 683,-388l28 -13c268,-109 709,-68 994,-19l288 95c3,90 6,185 -7,272 -32,211 30,337 -121,235 -71,-49 -83,-35 -171,-57 -55,-15 -22,-3 -63,-22 -173,-79 -489,-83 -682,-42 -273,58 -593,283 -660,576 -37,160 -63,382 -33,577 28,186 105,282 220,392 336,321 682,178 943,155 12,-100 11,-176 11,-276 1,-215 22,-245 -88,-256 -9,-1 -52,0 -63,0l-400 -5c-18,-124 -3,-382 21,-496 114,-22 818,-3 1039,-4 41,0 97,-5 123,18 44,41 15,647 15,702 0,209 12,481 -23,660 -58,131 -493,196 -545,210 -194,53 -574,71 -787,35 -76,-13 -16,-7 -86,-31 -45,-15 -141,-18 -303,-70 -133,-43 -119,-49 -254,-119 -130,-69 -269,-256 -350,-393l-16 -23c-48,-82 -10,-46 -61,-150 -87,-176 -72,-420 -73,-635zm-1611 -1330c103,-52 1391,-15 1567,-13l-36 460 -718 -21c-51,-3 -248,-21 -272,34 -47,110 -64,467 -52,560 122,48 688,11 879,27 16,78 -7,448 -34,517l-294 -10c-738,-12 -647,-38 -677,229 -13,116 -66,343 -20,389 60,60 858,13 1075,27l-43 498c-98,34 -1042,31 -1263,42 -30,1 -30,3 -54,6l-451 18c-14,-66 14,-259 30,-358l299 -2073c61,-211 24,-152 39,-262l25 -70zm11577 2619c-241,280 -593,253 -941,251 -317,-1 -635,-13 -950,-14 -38,-84 -32,-38 -50,-154 -10,-68 -8,-140 -17,-195 -20,-126 -35,37 -45,-145 -4,-73 -10,-96 -21,-167 -33,-209 -243,-1983 -230,-2116 269,-36 655,5 941,8 273,2 414,23 630,91 64,20 120,20 184,52 162,83 457,294 536,434l263 687c64,269 94,590 -6,842 -31,80 -16,17 -47,74 -54,101 24,22 -127,226 -42,58 -73,71 -120,126zm-4990 119c-56,-92 -151,-2579 -141,-2689 176,-15 534,-19 661,20l324 463c101,112 103,145 167,226l332 451c39,55 43,42 88,121l246 331c142,191 97,191 186,208 3,-326 -48,-595 -80,-892l-69 -913 525 4c83,185 74,807 113,1048l37 337c9,80 29,51 34,165l120 1198c-149,17 -362,1 -517,-1 -105,-1 -142,-17 -184,-81l-216 -300c-116,-193 -33,-37 -108,-140l-267 -374c-55,-60 -11,9 -52,-66 -28,-49 -57,-94 -96,-159 -18,-29 -87,-124 -111,-152l-172 -225c-42,-68 -27,-25 -58,-64 -27,-34 -50,-122 -200,-296 -58,-68 -39,-102 -117,-116l46 983c3,364 46,391 57,703 2,63 10,64 15,106 8,74 9,104 -47,119 -56,16 23,0 -36,7 -1,0 -57,-1 -63,-1 -48,0 -96,-1 -144,-2l-227 -3c-68,-9 -25,-6 -46,-16zm-8526 -2696c81,-38 481,-21 610,-16 2,128 -41,185 -54,294l-145 861c-43,188 -59,171 -68,272 -17,177 -50,275 -80,416l-67 428 1234 6c14,194 -34,288 -72,451 -15,61 -12,57 -70,67l-1822 -1 484 -2629c22,-52 11,-11 23,-63 5,-21 5,-29 12,-54 1,-4 6,-7 7,-16 1,-9 5,-11 8,-16zm7208 -1705c-7,80 -18,126 -42,188 -131,335 -134,387 -387,681 -210,242 -476,421 -827,477 -396,63 -739,64 -1136,-69 -25,-9 -18,-3 -45,-14l-229 -142 -426 -421c-114,-184 -215,-401 -251,-614 -113,-674 174,-1592 807,-1949 294,-166 162,-69 294,-131 306,-143 852,-150 1115,-57 292,103 432,140 692,384 494,463 485,1047 463,1646l-28 21zm2134 -1906c212,124 266,75 461,372 149,227 99,580 -131,797 -251,237 -281,127 -295,242 49,23 75,15 131,32 39,12 85,30 121,46 196,89 133,63 287,208 152,143 50,4 138,194 101,215 139,409 83,676 -20,97 -69,163 -102,228 -74,150 -176,211 -336,303 -44,25 -71,27 -113,52 -40,24 -42,39 -101,60 -239,84 -1623,46 -1899,32 -40,-195 -2,-1502 -41,-1692l-24 -97c-1,-29 1,-73 1,-104l-8 -630c-22,-154 -36,-668 -13,-833 324,-28 772,-1 1112,-1 206,0 588,33 729,115zm3085 1958c8,43 24,133 31,177 15,95 27,88 37,162 16,108 13,235 59,328l1280 4c32,149 114,512 104,666l-2051 -13c-70,-92 -62,-297 -79,-427l-226 -1714c-18,-120 -181,-1104 -161,-1256l657 2c48,79 83,413 96,533 9,80 27,41 37,143 16,155 39,204 64,348l152 1047zm3936 826l515 289c119,83 259,135 292,233l-2160 0c-1066,-5 -826,61 -934,-341 -58,-214 -128,-701 -159,-914 -20,-140 -70,-305 -92,-419l-75 -469c-18,-170 -71,-297 -86,-433 -10,-88 -18,-154 -33,-241 -11,-67 -40,-106 -59,-203 -34,-171 -89,-329 -82,-418l343 -8c427,-10 1100,-69 1527,-20 31,115 37,28 105,184 2,4 4,10 6,15 43,93 36,268 13,352l-1130 36c-28,154 82,395 94,695 27,20 27,20 46,53l1159 5c115,330 172,77 78,600l-845 9c-254,0 -283,-18 -249,119 41,166 28,238 58,316 65,172 63,289 108,382 229,21 546,7 784,7 448,1 469,-62 776,171zm-4909 223c54,84 129,170 134,284l-1036 -4c-83,0 -271,29 -287,-42 -13,-58 32,-80 55,-125l132 -359c46,-133 -2,-466 -9,-629l-83 -942c-66,-187 -4,-629 -158,-853l-195 -317c-3,-4 -7,-8 -9,-12 -35,-57 -24,-62 -26,-107l1184 -1c-2,69 -9,139 -30,185 -18,41 -45,73 -65,136 -34,110 -75,225 -46,360 12,58 -2,-14 16,45l168 1393c20,88 22,304 25,404 5,166 45,179 64,329 85,65 105,162 166,255zm-12020 -810c18,-54 9,8 20,-85 27,-242 86,-453 130,-696 9,-50 37,-108 46,-154l101 -547c18,-114 40,-216 76,-329 44,-136 57,-318 93,-469l54 -226c118,-15 1009,13 1065,39l367 1684c7,45 99,572 119,523 1,-3 6,9 9,14l160 -278c67,-95 123,-249 189,-346 102,-150 164,-312 242,-479l146 -292c20,-40 48,-90 74,-133l17 -26c77,-110 135,-257 192,-384 165,-367 165,-231 672,-231 399,0 527,-48 534,100l-234 2486c-19,73 -47,233 -42,343 54,47 79,90 130,126 109,79 382,255 400,372l-1015 -23c-173,-1 -311,29 -329,-64l259 -2509c-82,9 -79,107 -175,302l-22 40c-11,21 -8,14 -21,42l-1090 2176 -587 -6c-94,-118 -117,-354 -137,-513 -63,-489 -267,-1313 -285,-1677l-23 42c-9,-118 -23,-189 -44,-295 -17,-81 -7,-190 -84,-213 -29,68 -92,547 -105,673l-347 1895c-1,4 -5,20 -6,17 -1,-3 -4,11 -7,16 -47,49 -1569,13 -1646,16 23,-81 -16,-29 56,-80l995 -571 53 -280zm13639 -2762c-14,85 68,751 113,853 65,150 194,1201 195,1377l-456 -7c-137,-301 -138,-658 -254,-964 -87,-230 -67,-216 -115,-404 -20,-79 -36,-59 -52,-121l-117 -404c-59,-169 -10,-275 -225,-274l-2456 -21c-430,-7 -895,15 -1319,-5 -379,-19 -886,-33 -1281,-11l-6 486c-116,10 -173,-94 -257,-139 -214,-115 -186,-281 -586,-336l-721 -95c-140,-12 -698,162 -861,210 -64,20 -133,40 -186,78 -35,25 -47,47 -73,70 -30,25 -45,26 -75,51 -92,75 -176,218 -289,249 -56,-88 -107,-502 -147,-637 -200,-36 -1159,-10 -1427,-5l-608 1142c-2,4 -5,9 -7,13l-225 343c-12,-19 -14,-16 -24,-50l-191 -858c-14,-70 -35,-118 -43,-160 -103,-501 24,-386 -649,-430l-784 -59c-196,-14 -196,-4 -236,181 -11,50 -23,104 -35,149 -95,370 -139,760 -237,1123 -18,67 -19,71 -31,155l-200 935c-26,114 -45,200 -70,320 -36,171 -1,161 -139,253l-242 150c-60,31 -71,23 -125,63l-636 376c-196,139 -382,205 -372,306 178,3 321,30 486,45 96,8 152,31 230,39 63,6 71,-3 134,18 112,37 899,112 1059,118 21,222 -93,555 -132,779l-86 358c-17,117 -31,286 -65,393 -51,160 -108,587 -132,780 -25,196 -143,574 -119,739l15 29c26,25 122,20 169,19l2022 0c911,-8 589,-77 888,204l132 137c126,108 266,283 384,420 196,225 119,207 515,208 234,0 468,0 701,0l5696 -1c310,0 2769,30 2847,-5 46,-20 285,-300 335,-362l169 -184c71,-64 28,-1 83,-77 145,-199 229,-67 378,-140l89 -77c139,-114 251,-155 363,-319 24,-34 49,-67 69,-93 93,9 169,97 229,168 32,39 4,10 51,45 267,201 292,305 689,312 356,7 473,79 810,-70 130,-57 281,-126 429,-141 42,-62 37,-38 73,-78 31,-34 6,-11 32,-48 35,-48 15,-15 39,-45l133 -177c47,-57 83,-135 134,-197 191,-228 157,-155 121,-594 -19,-221 -57,-186 -118,-336 -81,-199 -166,-242 -309,-370 -51,-47 -71,-64 -90,-122l406 -487c61,-83 110,-82 110,-173 -31,-22 -62,-32 -87,-49 -33,-22 -43,-45 -72,-71 -69,-61 -111,-28 -77,-204 155,-16 314,-8 468,-17 139,-9 281,-39 434,-40 128,-1 121,-24 205,-32l207 -18c79,-5 170,2 247,-6l185 -38c-25,-62 10,-13 -57,-65 -413,-319 -1012,-719 -1439,-994 -4,-2 -9,-5 -12,-8l-23 -19c-25,-21 -7,-8 -33,-30l-131 -92c-136,-82 -606,-77 -781,-88 -128,-9 -149,-126 -55,-161 196,-74 356,65 477,-188l41 -104c114,-289 286,-304 61,-544 -464,-497 -55,-413 -931,-478 0,-126 86,-98 210,-132 420,-115 199,32 405,-297 20,-33 6,-17 33,-53 122,-161 46,-218 -54,-359 -43,-60 -59,-122 -100,-190l-250 -350 -2391 9z"/>
 </g>
</svg>
